/* XPM */
static char *New_Project__1_1676916535[] = {
/* columns rows colors chars-per-pixel */
"40 40 219 2 ",
"   c #030201",
".  c #080D05",
"X  c #030A08",
"o  c #190805",
"O  c #0B1409",
"+  c #131A09",
"@  c #081C12",
"#  c #230205",
"$  c #271804",
"%  c #2D1710",
"&  c #10201B",
"*  c #372819",
"=  c #0F3131",
"-  c #123329",
";  c #342F2B",
":  c #4D0C0A",
">  c #4C341A",
",  c #59391D",
"<  c #4A3111",
"1  c #773C14",
"2  c #732C18",
"3  c #740623",
"4  c #7E0528",
"5  c #473523",
"6  c #543C24",
"7  c #5D3D24",
"8  c #5C3726",
"9  c #583534",
"0  c #713F29",
"q  c #701314",
"w  c #2C4116",
"e  c #334D1C",
"r  c #3D591E",
"t  c #304C25",
"y  c #376A34",
"u  c #2D6939",
"i  c #734915",
"p  c #594429",
"a  c #465826",
"s  c #575827",
"d  c #4B4C3A",
"f  c #634224",
"g  c #62462D",
"h  c #7C4E27",
"j  c #73532E",
"k  c #7E532D",
"l  c #674835",
"z  c #7C5632",
"x  c #795939",
"c  c #695A33",
"v  c #417833",
"b  c #567229",
"n  c #786B38",
"m  c #6C6F3E",
"M  c #065445",
"N  c #064F46",
"B  c #026553",
"V  c #317147",
"C  c #406240",
"Z  c #457D4A",
"A  c #6A6142",
"S  c #8A040E",
"D  c #891A0E",
"F  c #87061C",
"G  c #97051A",
"H  c #9D1C1E",
"J  c #A40413",
"K  c #A90411",
"L  c #AB0C15",
"P  c #A50619",
"I  c #BC061C",
"U  c #B90813",
"Y  c #BA1B13",
"T  c #B41A13",
"R  c #AC161F",
"E  c #8A260E",
"W  c #843A0D",
"Q  c #8C2819",
"!  c #BC2817",
"~  c #A5241E",
"^  c #88042A",
"/  c #91042A",
"(  c #960424",
")  c #A50F28",
"_  c #B60922",
"`  c #AA1222",
"'  c #992621",
"]  c #B92B22",
"[  c #C30615",
"{  c #C70A1A",
"}  c #D60A18",
"|  c #CC1A15",
" . c #C61314",
".. c #DC1419",
"X. c #D61916",
"o. c #E11E17",
"O. c #C72414",
"+. c #D72516",
"@. c #D73918",
"#. c #CA3414",
"$. c #ED2D17",
"%. c #E32218",
"&. c #E52C1A",
"*. c #EB2A18",
"=. c #E93A17",
"-. c #E33817",
";. c #F33418",
":. c #F33F18",
">. c #F12E18",
",. c #B14512",
"<. c #B26B11",
"1. c #84572E",
"2. c #845A33",
"3. c #8B643C",
"4. c #956336",
"5. c #A56D3A",
"6. c #8C5713",
"7. c #D84E16",
"8. c #DC5516",
"9. c #CD4615",
"0. c #E34317",
"q. c #E84918",
"w. c #E85917",
"e. c #F24B18",
"r. c #DD761A",
"t. c #EC6D17",
"y. c #E46517",
"u. c #E87619",
"i. c #F44826",
"p. c #EA6D2B",
"a. c #986E44",
"s. c #9C7248",
"d. c #847250",
"f. c #AF7D4A",
"g. c #A77646",
"h. c #B37B45",
"j. c #B37F4A",
"k. c #BB7B41",
"l. c #E35544",
"z. c #C07E44",
"x. c #5A842D",
"c. c #5A8C3A",
"v. c #558B3B",
"b. c #6E9636",
"n. c #6FA337",
"m. c #6CA13C",
"M. c #33874C",
"N. c #529747",
"B. c #688C45",
"V. c #58A649",
"C. c #62B751",
"Z. c #64AD4D",
"A. c #77C34E",
"S. c #86913B",
"D. c #DB8717",
"F. c #E8911B",
"G. c #EB9931",
"H. c #EBA135",
"J. c #B5814C",
"K. c #BB844E",
"L. c #B58452",
"P. c #BA8652",
"I. c #BD8A55",
"U. c #BD8D5A",
"Y. c #AD8053",
"T. c #8BBD48",
"R. c #BEA668",
"E. c #CB8242",
"W. c #C4864B",
"Q. c #CE8749",
"!. c #C5894E",
"~. c #CC8A4C",
"^. c #C78246",
"/. c #D38C4C",
"(. c #D08847",
"). c #C38C54",
"_. c #CA8E54",
"`. c #C18E5A",
"'. c #D28F51",
"]. c #CA9157",
"[. c #C4915C",
"{. c #CB925A",
"}. c #D49153",
"|. c #D99454",
" X c #D4955A",
".X c #D99759",
"XX c #D4995E",
"oX c #DA995C",
"OX c #CE944D",
"+X c #E98F44",
"@X c #C69562",
"#X c #CA9661",
"$X c #CE9964",
"%X c #CF9B68",
"&X c #D49A62",
"*X c #D99C62",
"=X c #D29E69",
"-X c #C59C74",
";X c #CA9E75",
":X c #D5A06A",
">X c #DAA26B",
",X c #DDA166",
"<X c #CBA47C",
"1X c #CAA178",
"2X c #D3A77D",
"3X c #F2B471",
"4X c #83C646",
"5X c #8FD94D",
"6X c #9AE24D",
"7X c #F1CA76",
"8X c #CEA881",
"9X c #D4AD86",
"0X c #D7B38D",
"qX c #D8B48E",
"wX c #DBB790",
"eX c #F4C685",
"rX c #F3D7A2",
"tX c #F4E6A8",
"yX c #F3EFB4",
/* pixels */
"9X#X{.I.:X).%X#X$XI.:XI.%X{._.@X=XU.{.$XI.=X).%X{.$XI.:X).$X#X`.[.:XU.XX#XP.:X).",
"qXz.E.K.I.j.&XE.E.J.[.I.Q.E.~.J.I.[.E.E.K.U.h.&XE.(.J.U.I.~.E.Q.J.I.U.E.E.K.I.f.",
"9X(.E.].&X~.XXE.Q.#X}.{.}.E.Q.=X|.U.Q.E.].&X!.&XE.(.#X'.[.}.E.~.=X|.).(.E.].oX~.",
"2X)..X]./.W.[._.oX{.E.).[.}.].XX/.K.)..X]./.W.]._.|.{.Q.).[.}.}.XX/.P.)..X]._.W.",
"0X|.`.{.E.W.*X XI.].E.{..X{.U.Q./.[.|.).{.E.W.:X XI.|.z.#X.X{.`.(./.[. X`.[.E.W.",
"-X[.`.K.).P.!.[.I.!.[.h._.[.P.!.[.h.[.`.P.).K.K.[.I.W.`.h.).].P.).[.h.[.`.K._.P.",
"qX X X].>X_.>XXXoX[.>X@X&XoX X$X,X@XXX.XJ.5     g oX`.>X[.*XXXXX#X,X[. XXX].>X_.",
"0XE.E.!.#XP.&Xz.Q.P.$XU.Q.E.5.x x x h h j s w . , E.a.x x k 1.5.[.#X[.E.E.W.#XP.",
"1X|.E.{. XW.]././.{.Q.).|.(.f           + b.n.+ f ^.5         2.%X/.J.|.E.{. XW.",
"9X]. X]./.W.$X{.]. XE.[.{. Xp O r x.x.t & Z.4Xv a p b x.x.e   z  X/.`.].{.]./.W.",
"9X/.{.$X(.!. X|.[.oXQ.].OX.Xp + c.4X5Xv.= B.A.C.u O c.5X4Xb % 3./.|.)./. XXXQ.!.",
"-X[.U.J.U.K.P.U.I.J.U.h.`.`.p . - v Z.M.N V Z V.M.M N.V.e s d.g.P.U.j.U.U.J.U.J.",
"0XQ.E.).{.K.&XQ./.P.#X[.h.2.i < , c S.m d 9 9 n V B V u O 6 Q./.).{.[.Q.Q.!.{.K.",
"0XE.E.).=X).&XE.Q.[.{.@X2.o i D.D.u.r.@.{ } { R 9 B M = X 7 E.Q.%XoX@XE.E._.=X).",
"-X]./.]. XW.).}.'.[.k.j x A <X3Xp.0.q.q.7.&.o.X.' 9 y u u a f p p '.h.].(.]. XW.",
"wX X_.{.E.W.>X X).).4.< A yXyXtXl.%.;.w.u.q.$.;.+.L 3.Z.C.v + .   '.@XXX_.{.E.W.",
"<XQ. X{.Q.!.].~.].z > 6.OXyXyXtX+Xw.;.+.! Y | >.o.[ ~ 1.T.4Xn.w   |.K.~. X{.~.!.",
"<X#X#XK.$X).#X{.#X7 $ <.+X3XeX7XH.t.&.| K U O.q.*.} U ' b.b.b.s * $XP.#X#XP.#XI.",
"qXE.E.K.I.f.&XE.E.6 $ <.u.i.p.F.F.y.X.[ K +.e.u.q.} U 3 * & + h g.U.U.E.E.W.I.J.",
"qXE.E.].*X).*XE.E.p $ <.t.:.e.w.7.9.%.+.#.&.=.9.! I U H d y b s l oX@XE.E.).=X~.",
"1X].|.].}.W.).).!.p % <.t.:.;.*. . .$.q.w.=.+.L ( / _ ] B.C.6Xa   (.J.].|.{.'.!.",
"qXoXU.{.E.W.>Xs.* 1 ,.q.w.t.=.o.{ X.>.*.+.| L F ^ / I R t N.6Xr   /.@XoXI.{.E.^.",
";X_._.I.).W.!.z   W w.@.-.y.@.} ..%.*.X.[ P F 3 ^ ( [ P % t n.*   _.h._.).)._.K.",
"0X{.{.).>X].:Xz   W 8.O. ...} ..0.-...I / ^ 3 3 F J { P o O + .   >X`. X{.).>X_.",
"0XE.E.W.[.L.&Xh   W 8.T U U I _ ] ] _ ( 4 3 3 F P U G q 8 7 , 7 6 #X[.z.z.Q.[.L.",
"2X/.E.[. XW.{.1.  1 8.Y K K ( / / ^ / 4 3 3 F J U U : < g.'.(./.&X/.I.'.E._. XW.",
"<X). X]./.W.[.z   E =.X.U J J G / ^ ^ ( G P I [ S : 0 4.L._.|._. X/.P.I..X]./.W.",
"0X|._.{.E.~.=X4.* E ! X.| Y T T ) ) ) S S G K J q * a.z.{.'. X`./.}.`.|.].#XQ.!.",
"-XU.U.h.U.J.K.L.s., : ,.w.8.8.7.-.*.&.D o # # # 8 s.g.U.h.`.@XL.L.`.h.`.`.j.I.J.",
"qX'.'._.&X).=X}. X2.7 1 W W W W E D D 2 6 7 6 p 3.|.).&X`. X'._.[.oX`.'.'.).&X).",
"0XE.z._.%X).&XE.Q.U.f.*               7 ).%X).&XE.(.).$X@X(.z.(.@X&X`.z.z._.%XP.",
"<X|.(.). X!.]./.'.%Xz.2.x 1.z 3.2.j 2.5._. XW.]././.@XQ.). X(.'.&X/.K.|.(._.|.W.",
"0X{.].].(.W.:X{._. XE.{.&X].).}./.[.{.].].(.W.:X{.). XE.[.&X]._. X/.[. X_.].Q.W.",
"2X/.XX&X/.~. X|.].XX/.].|.|.@X|.|.).}. X&X/.~. X|.{.oX/._.|.oX[.'.|.!.'. X&X/._.",
"<X#X@XJ.#XP.`.#X[.P.@XJ.@X@XI.I.#XJ.$X{.K.@XP.`.@X@XP.@XJ.[.@XI.I.#XJ.@X#XK.@XI.",
"0XE.z.W.`.j.&XE.Q.J.[.U.~.E.Q.P.].`.E.z.W.`.j.&XE.E.K.[.U.Q.E.~.P.[.U.E.z.W.`.J.",
"0XE.z._.,X_.&XE.(.#X&X$X/.z.(.=X*X{.E.z.).>X_.=XE.E.#X&X%XQ.E.~.:X,X[.E.E.).=X_.",
";X_.}.{.}.Q.).].|.#XE.P._.}._.&X/.j.].|.].}.W.).}.|.#XE.K.].}.}.XX/.j.OX|.].|.W.",
"qXXX).{.E.!.>XXXP. XE.#XoX{.)././.#XXXU.{.E.W.>XXXL. XE.#XXX{.I.~./.@XXXI.{.^.W.",
"<X~._.`.~.W.).Q.).].~.W.~.].`.~.'.J.~._.{.~.W.~.~.).{.Q.!.~.}.U.~.}.K.~._.].~.W."
};
