/* XPM */
static char *New_Project__2_1676916534[] = {
/* columns rows colors chars-per-pixel */
"40 40 227 2 ",
"   c #120F5F",
".  c #13105F",
"X  c #1E175E",
"o  c #241C5E",
"O  c #281E5F",
"+  c #2D225D",
"@  c #3E2F5E",
"#  c #141161",
"$  c #1A156B",
"%  c #1B1765",
"&  c #1E1872",
"*  c #241A7A",
"=  c #261C7A",
"-  c #152773",
";  c #372968",
":  c #2B2178",
">  c #362777",
",  c #2B2466",
"<  c #523A5A",
"1  c #513C71",
"2  c #453469",
"3  c #33477F",
"4  c #594158",
"5  c #704F5A",
"6  c #59496D",
"7  c #755766",
"8  c #694B6D",
"9  c #855A56",
"0  c #95695B",
"q  c #9D765D",
"w  c #AF7D4A",
"e  c #B27F4A",
"r  c #BB7745",
"t  c #A56F51",
"y  c #A67756",
"u  c #B37C5A",
"i  c #8E6A67",
"p  c #A07760",
"a  c #C57D41",
"s  c #B5814C",
"d  c #BC854E",
"f  c #BB8652",
"g  c #BD8954",
"h  c #BC8B5A",
"j  c #B5875A",
"k  c #AA8152",
"l  c #B68A6A",
"z  c #AAA17F",
"x  c #CB8242",
"c  c #C4864A",
"v  c #CE8749",
"b  c #C5884E",
"n  c #CB8A4D",
"m  c #D38C4C",
"M  c #D08747",
"N  c #C38C55",
"B  c #CA8F54",
"V  c #C18E59",
"C  c #C08355",
"Z  c #D28F51",
"A  c #CC9156",
"S  c #C4915D",
"D  c #CA925B",
"F  c #D39153",
"G  c #D5955B",
"H  c #D9985A",
"J  c #C68C68",
"K  c #C69563",
"L  c #CC9661",
"P  c #CE9964",
"I  c #CA9A6B",
"U  c #D49A62",
"Y  c #D59E67",
"T  c #C59C77",
"R  c #C8886E",
"E  c #D9A26B",
"W  c #CCA47C",
"Q  c #D5A97F",
"!  c #2A1E83",
"~  c #271D80",
"^  c #163D89",
"/  c #1F3B96",
"(  c #282586",
")  c #33238E",
"_  c #372886",
"`  c #21348E",
"'  c #3C2995",
"]  c #372894",
"[  c #263895",
"{  c #333198",
"}  c #3D3AA7",
"|  c #2B3FA3",
" . c #463589",
".. c #432D9C",
"X. c #452D9A",
"o. c #4B359B",
"O. c #473596",
"+. c #51399B",
"@. c #412B8C",
"#. c #432DA0",
"$. c #4333A3",
"%. c #4B32A3",
"&. c #423BA9",
"*. c #553BAC",
"=. c #5637A6",
"-. c #583FB0",
";. c #603DAD",
":. c #633FB1",
">. c #185099",
",. c #1B58A7",
"<. c #3B41AA",
"1. c #384CB5",
"2. c #3455BB",
"3. c #2750AA",
"4. c #176AB0",
"5. c #2966B7",
"6. c #394797",
"7. c #57479B",
"8. c #4E4692",
"9. c #5B44A8",
"0. c #5A44B4",
"q. c #4D54BC",
"w. c #5751B1",
"e. c #6542AD",
"r. c #6748AA",
"t. c #6442B4",
"y. c #6C44B5",
"u. c #6D4BB8",
"i. c #734ABB",
"p. c #7A4CBD",
"a. c #7147B6",
"s. c #6951BE",
"d. c #7955BB",
"f. c #6C51A5",
"g. c #5E5BA1",
"h. c #2F5DC1",
"j. c #1979CD",
"k. c #1A77CB",
"l. c #2D66C7",
"z. c #3D67CA",
"x. c #2B75CB",
"c. c #277CD7",
"v. c #3877D2",
"b. c #3475C9",
"n. c #425FC5",
"m. c #7F4EC0",
"M. c #7755C3",
"N. c #6458C3",
"B. c #4869C8",
"V. c #706BCE",
"C. c #836180",
"Z. c #8F71AF",
"A. c #B278A8",
"S. c #8D5ABA",
"D. c #814FC1",
"F. c #8352C3",
"G. c #8856C7",
"H. c #8C5BCA",
"J. c #855BC6",
"K. c #905ECC",
"L. c #9363CF",
"P. c #9A66C6",
"I. c #9C6BD6",
"U. c #9967D4",
"Y. c #8C72D4",
"T. c #A06DD9",
"R. c #A674DD",
"E. c #A774C9",
"W. c #A679E1",
"Q. c #7D8084",
"!. c #7AA59A",
"~. c #789EA2",
"^. c #6BB1B6",
"/. c #1A87DA",
"(. c #1C87C3",
"). c #2389CC",
"_. c #2583DA",
"`. c #3386D7",
"'. c #2796D8",
"]. c #2AA8DE",
"[. c #1D8DE3",
"{. c #169DED",
"}. c #1B9BEB",
"|. c #1894E5",
" X c #169FF0",
".X c #2494E3",
"XX c #389BE3",
"oX c #2589E2",
"OX c #1BA3EA",
"+X c #1EB4E8",
"@X c #14A3F2",
"#X c #17ACF5",
"$X c #19AEF4",
"%X c #19B2F6",
"&X c #1BBDF9",
"*X c #1BB9F7",
"=X c #26A8E7",
"-X c #36ABE8",
";X c #24B4EC",
":X c #29BAF1",
">X c #3EBDF8",
",X c #20A6F0",
"<X c #4093DE",
"1X c #7398EB",
"2X c #6D95E7",
"3X c #52AFF0",
"4X c #5BAFE1",
"5X c #1DC4FB",
"6X c #1FCBFD",
"7X c #22CCFC",
"8X c #24C5F8",
"9X c #33C5FB",
"0X c #21D1FF",
"qX c #8C9A87",
"wX c #BE9881",
"eX c #B98392",
"rX c #94A58E",
"tX c #B382A9",
"yX c #CBA688",
"uX c #D4AD86",
"iX c #D7B28E",
"pX c #D8B48E",
"aX c #CDA792",
"sX c #DBB790",
"dX c #C18998",
"fX c #8F89E7",
"gX c #AA84D7",
/* pixels */
"uXL D g E N P L U f E h U D D D E h D P f Y N I L U g Y N P L B S E h L L g Y g ",
"pXa x d g w U x x e h h m r t 4 @ o o X o O + 4 9 r e N h v x b s g h x x c g s ",
"uXm x B U b U x M L Z j 5 O . . # . # . # # # .   X 2 0 K Z x m P H g m x B U b ",
"W N H A m c D N H V < . . % > +.f.r.r.r. .= % #   . .   + 0 Z A H m g g H A m c ",
"pXF V D x c Y G 9 O .  .p.K.K.K.K.K.H.L.I.W.I.i._ $ . .   # 4 j g B h H g L x c ",
"I S S f B f d 5 . > F.H.D.D.D.D.F.p.D.m.D.D.G.T.R.J._ $ #   # O k z k S S d N d ",
"pXG G B E N 7 $ r.D.D.D.D.:.%.X.Z...%.%.=.a.D.D.H.I.R.r.* $ ,   , l rXP H A E A ",
"pXx x b K 8 : y.D.D.p.=.' ) ] #.w.#.#.#.#.#.%.:.p.F.L.R.d.= $ # # o qXqXx d L d ",
"W F M A 0 _ y.D.D.;.' ) ] #.#.#.#.#.#.#.#.#.#.#.%.a.D.G.R.d.= $ # # 2 ^.l D H d ",
"uXS A j > :.D.D.o.) ) X.} } 1.c.[.[.[.[.x.1.$.#.$...t.p.G.R.u.= .     6 ^.S M c ",
"uXZ A 8 +.D.D.=.) ) ..#.l.|.@X@X@X@X#X%X#X X[.h.#.#.#.t.D.L.R.+.* . # % +Xz m M ",
"T V p ' p.D.=.) ) ..<.[.@X@X@X&X5X8X8X7X0X7X5X$X_.} 9.9.e.p.U.U.= & . # 4.!.B d ",
"pXM 8 ;.D.e.) ) ' <.}.@X@X@X}.B.V.Y.Y.fX1X9X0X0X&X_.g.9.' p.G.R.O.* # . - 4XA d ",
"iXr  .D.F.+.) ] <..X@X@X XB.M.H.H.J.J.H.U.R.fX7X0X5X_.} ) =.D.U.d.* $ . - 6XI N ",
"T i :.G.;.) ) ' .X@X@X@Xn.N.D.D.m.m.N.:.t.G.T.fX9X0X#X2.] o.D.G.Y.( , . - 8Xz c ",
"pX7 p.F._ ) ) 1.;X@X@Xn.:.m.D.m.0.z.v.v.1.$.t.I.fX0X&Xc...@.p.D.W._ &     +XrXc ",
"I f.F.e.! ) ) =X#X Xc.-.p.D.F.B.|.}.XX3X;X`.} i.R.>X0X}.} ' i.D.T.@.= $ # +X!.b ",
"T f.U.@.) ) } 7X X Xn.:.D.F.V.$XoXN.M.*.0.'.b.%.L.1X0X,X1.X.y.D.I.O.* & # +X~.N ",
"yXa.L.! ) ) 5.6X@X[.-.i.D.K.3X{.0.M.*.) ] <.'.%.J.1X6X3X2...a.D.I.O.* & % *X~.e ",
"aXS.d.! ) ) '.&X@Xl.-.m.F.Y.8X`.M.M.X.  & $.`.%.J.1X&X{.1.%.p.D.I._ * & - 6X!.N ",
"T K.r.! ) ) .X5X@Xh.;.m.D.fX9Xv.s.J.%.) ) } b.:.K.<X#X|.} *.D.D.gX8.* & >.&XQ.c ",
"aXP.+.! ) ) =X5X@Xh.*.p.G.fX7XXX-.I.N.*.} b.q.F.M.$X@X[.$.y.D.D.Y. .* & (.#Xi c ",
"T P.+.= ) g.-X5X Xh.=.i.m.W.9X6Xn.i.I.Y.V.V.D.i.v.@X Xh.=.p.D.H.+.* * - +X|.0 c ",
"aXE.+.* ) o.'.7X Xh.%.:.F.I.1X0X-Xn.0.M.i.t.*.l. X@Xc.&.a.D.D.J.! & * ,.#X4.I A ",
"aXA.9.* ! ) x.0X$Xc.#.*.m.J.W.3X0X7XXXl.2.l.[.@X@X.X&.y.D.D.G.%.& ~ ( OX@X3 K s ",
"yXA.u.* = ) | 0X*X{.} $.:.D.L.W.3X7X6X6X*X*X*X:X.X0.y.D.D.D.e.( : : 4.@X/.7 G c ",
"W eXP.* * ) ) ;X0X#Xh...#.y.D.H.R.fX3X3X:X-XXXB.s.J.D.D.D.:.) * 8.6.@X@X^ k B c ",
"uXG E.= * = ) 5.6X5X}.} ) ..t.D.F.L.I.R.I.U.L.L.G.m.D.m.;.] ~ * = /.@X(.@ D x b ",
"T S tX .* * = ) =X0X%X/.{ ) ) %.a.D.D.D.p.F.D.F.D.D.a.o.) ! * ( j.@X|.- q s g s ",
"pXm J A.> * * ) 3.8X0X%X[.] ) ) ) X.;.a.p.p.p.a.:...) ) = * ( k.@X@X^ 4 A N U b ",
"iXx a A.i * * * ) 5.6X0X#X|.3.) ) ) ) ) ) ) ] 7.f.) ! = & / /.@X@X,.2 r x b P N ",
"W F M R tX6 * * * ! 5.6X0X&X@Xx.{ ) ) ) ) ) ) ' O.~ * ` k.@X@X@X>.X t F x A G c ",
"iXA A D R l 6 = = * ! B.;X0X7X%X@X/.2.3.` ) ` ` ` ,.j.@X@X@XOX,., t S D A D n c ",
"Q m G P Z R J 8 * * * > ( ).7X0X6X&X#X@X{.{.{.@X X@X@X#X*X).( > u H b F G D m n ",
"W S K d S g J K 7 : = * * * { ).;X6X0X0X5X5X&X5X5X5X%X).` = 1 y h S e P K d S d ",
"pXx x d S s G x M t 1 * * * * * : [ ,.).'.'.).).4./ ( * > 9 c v g A J a x c S s ",
"iXx x N E A U x M L Y p 8 = = * * * * & * * * * * = 2 i J m x v Y U S x x N E A ",
"W A F B F c N A F D m b b C 0 1 2 = * * * = = 1 5 u J M f B F F G m s A Z A G c ",
"iXG g D x c E U f G a L H D N m m K G g A x c Y H f G a L H D h Z Z K H N D x c ",
"W v A B n c n n V F n c B B N m m d n B D n c B m N A n f n F V n F d v A B n d "
};
