/* XPM */
static char *_385dd7cec864bcfe60ccf391bdfbff4qKkzcaOTwPzpORlV[] = {
/* columns rows colors chars-per-pixel */
"40 40 54 1 ",
"  c #AF7D4A",
". c #B37B44",
"X c #B37F4A",
"o c #B5814C",
"O c #BB844E",
"+ c #B68450",
"@ c #BA8651",
"# c #BD8A55",
"$ c #BD8D5A",
"% c #CB8242",
"& c #C4864B",
"* c #CE8749",
"= c #C5884E",
"- c #CC8A4C",
"; c #D08747",
": c #D08847",
"> c #D38C4C",
", c #D7904F",
"< c #C38C54",
"1 c #CA8E53",
"2 c #C18E5A",
"3 c #D28F52",
"4 c #CB9056",
"5 c #C4915D",
"6 c #CB935B",
"7 c #D49254",
"8 c #D99454",
"9 c #D4955A",
"0 c #D99759",
"q c #D5995E",
"w c #DA995C",
"e c #C69562",
"r c #CA9662",
"t c #CE9964",
"y c #CF9B68",
"u c #D39A63",
"i c #D99C62",
"p c #D29E69",
"a c #C59C74",
"s c #CA9E75",
"d c #DDA166",
"f c #D5A06A",
"g c #DAA26B",
"h c #CDA177",
"j c #C7A078",
"k c #CBA47C",
"l c #D1A57B",
"z c #D5A97F",
"x c #CDA781",
"c c #CFA881",
"v c #D4AD86",
"b c #D7B38D",
"n c #D8B48E",
"m c #DBB790",
/* pixels */
"vr6#p1tr6#f$tr45p2rr@p1yrr@f$tr6ep26r<p<",
"b%%O$Xu%;X5#*%=+22%%&# u%;X5#*%-o2$%%&# ",
"v:%1u=q%:e35>%-u82;%1u=u%;r>6>%*u72:%2q-",
"k<06>&5106*<674q>@<863&5106*<574q>@<013&",
"n825%&p7#6%r09$*>58<6%&i9#9%r042;>e725%&",
"a22O1@@6#=1.15@=6.22@1O#5#O1.55@<5.62@1O",
"n0q1g1gqw5deuqqtde992g1g9w2g5u0qti5901g1",
"n%%=r@u%*@t$*%-$r5%%=r@u%*#t5*%*2t2%%<r@",
"j8%69&6>:e*<0:>u>O8*69-4>>e*<0:>u>o8%6q&",
"v664>&u61q%266<9,#494*&t419%26619>2664:&",
"v>9r:=9850;670e38<>6t:=9859:6795>82>6u;=",
"a5$X2o@2#o2.5$o@$.5#o$O@2#o5.5$@@$.$$o2o",
"n;*=5Ou*3@6e1*><6e**=6@p*>@6$4*><6e**<5O",
"b%%<p<u%*5qr*%=tq5%%<u<u%:5qr*%*rue%%1u<",
"a3:47&17>5;O1>3t>o1:49=17>6*O4>4u>X3;19&",
"mq56;&g6<9%rw6<3>r646%=g6#9%rw6<3>rq45%=",
"l*95*&1-29-<>7e>8O*96>=1:59*<>7e>3@;95-=",
"xrrOt<rrr@y@rr22t@rr@t#rrr@y@rt<2y#er@t<",
"n%%O$Xu%*.2#*%=o$$%%O#Xu%;X2#*%-X22%%&@X",
"n%%1i<i%*r9r>%*p05%%1u1i%;69r>%&p0e%%1i<",
"a4063&<186*O174u,o4041&<10r%@674u:X1043&",
"mw#6%&gq+9%rw6#>,5w#6%&gq+9%rw6#>>ei<5%&",
"s11#<==1<<1o16#<4.41<<O=1<11X14#11.1<<<&",
"b46<g1p692d6q74td549<g4p692i6q69pi296<g1",
"n%%=eXu%:@e$*%-#e2%%=e+u%*Oe$*%&#e2%%=e+",
"l>%49&6*:r*27*-y>#>%19&6;;6*50;-u>@3%29&",
"x<01>&5676%<1719>@<02>&6476*#<9-q>@1013&",
"v74r;&i7#9*5795-82366;&i729%6895:7271r%-",
"a5$X$X@2#X2.$5+O2.2$X#oO$#o5.$5+O$.$$X#o",
"b33<u=f37<ue9375q533<u<p77#q59745q533<u<",
"b%%=t<u%*#te*%*ere%%<t<u%*2te*%*eu2%%<u<",
"k3*49&6>>e*<7:1u>O3*49&4>>5*#8:4t>O7*19&",
"b666;&p619%5u613,5916*&g6<9%5u647>5646*&",
"c>9u>1885w,4,0e,8<>qu>=9860>480578<,9t>=",
"aeeOe@2e5+eXee<$eXreOe@2e5@roee#<5oreoe@",
"b%%&2Xu%;O5$*%*@22%%&2Xu%*O5$*%*@55%%&5o",
"b%%1g1u%;rir>%-yie%%1p4u%*eut:%*pie%%1g1",
"a1367&<185*O131u>X1,49&1>76*#4,4u>.4747&",
"mq<5%&gq@9%rw5#>>rq26%&gq+9%6i6#>>eq<6%&",
"k-14-=1-<4-=13<13X-44-&==16*O-72-7o-15*="
};
