/* XPM */
static char *New_Project1676916535[] = {
/* columns rows colors chars-per-pixel */
"40 40 221 2 ",
"   c #000001",
".  c #070B0D",
"X  c #17130D",
"o  c #0A0E11",
"O  c #1B1A19",
"+  c #0C1011",
"@  c #231C17",
"#  c #2C291C",
"$  c #35261A",
"%  c #3A291A",
"&  c #332517",
"*  c #3C351F",
"=  c #0E1E24",
"-  c #1F2021",
";  c #092C37",
":  c #132E36",
">  c #3E2F20",
",  c #383429",
"<  c #302F30",
"1  c #2C3536",
"2  c #343333",
"3  c #2C2C29",
"4  c #50371F",
"5  c #4B3C24",
"6  c #423427",
"7  c #553E26",
"8  c #443C36",
"9  c #494628",
"0  c #59462B",
"q  c #57532C",
"w  c #4C4238",
"e  c #504E35",
"r  c #664121",
"t  c #63472B",
"y  c #644A2D",
"u  c #694A2A",
"i  c #714E2F",
"p  c #644B33",
"a  c #6A4C31",
"s  c #6A5736",
"d  c #795634",
"f  c #755636",
"g  c #79502D",
"h  c #6C6634",
"j  c #636139",
"k  c #787139",
"l  c #183943",
"z  c #0B3340",
"x  c #1D4E5C",
"c  c #124251",
"v  c #3D555C",
"b  c #214B55",
"n  c #0C627B",
"m  c #15586B",
"M  c #494845",
"N  c #595651",
"B  c #4C544F",
"V  c #635B4B",
"C  c #665445",
"Z  c #695F58",
"A  c #7D6040",
"S  c #70664E",
"D  c #7C716C",
"F  c #7A7979",
"G  c #6F6A66",
"H  c #597155",
"J  c #89582D",
"K  c #855A34",
"L  c #8A633D",
"P  c #99693B",
"I  c #857F3B",
"U  c #A26937",
"Y  c #A6713F",
"T  c #8A6846",
"R  c #946B43",
"E  c #96714A",
"W  c #9B7146",
"Q  c #8D7359",
"!  c #A37649",
"~  c #AD7C4B",
"^  c #A97748",
"/  c #B37B44",
"(  c #B37F4A",
")  c #A97F55",
"_  c #867B74",
"`  c #80756E",
"'  c #86813E",
"]  c #8A8141",
"[  c #978F48",
"{  c #9A924A",
"}  c #97825F",
"|  c #B5814C",
" . c #BB844E",
".. c #A69C4B",
"X. c #B58453",
"o. c #BA8651",
"O. c #BD8955",
"+. c #BC8C5A",
"@. c #AE8152",
"#. c #ADA24E",
"$. c #B7AC53",
"%. c #B2A74F",
"&. c #8E817A",
"*. c #95877D",
"=. c #938A69",
"-. c #AE9A78",
";. c #AEA36F",
":. c #CB8242",
">. c #C4864B",
",. c #CE8749",
"<. c #C5894E",
"1. c #CC8A4D",
"2. c #C08147",
"3. c #D08747",
"4. c #D38C4C",
"5. c #D08847",
"6. c #C38C54",
"7. c #CA8E54",
"8. c #C18E5A",
"9. c #CA8F58",
"0. c #D28F51",
"q. c #CA9157",
"w. c #C5915C",
"e. c #CA925A",
"r. c #D49153",
"t. c #D99454",
"y. c #D4955A",
"u. c #DA9758",
"i. c #D4995E",
"p. c #DA995B",
"a. c #C9BD59",
"s. c #C6B857",
"d. c #C59562",
"f. c #CA9661",
"g. c #CE9964",
"h. c #CF9B68",
"j. c #D39A62",
"k. c #DA9C62",
"l. c #D29F69",
"z. c #C59C74",
"x. c #CA9E75",
"c. c #DDA166",
"v. c #D5A06A",
"b. c #DAA26B",
"n. c #CBA47C",
"m. c #CCA177",
"M. c #CFB272",
"N. c #CEC35C",
"B. c #D7C85B",
"V. c #E0CF5D",
"C. c #E2D15F",
"Z. c #D1C461",
"A. c #EDDB64",
"S. c #F1DF65",
"D. c #E2CD60",
"F. c #F6E365",
"G. c #FBE666",
"H. c #FFE866",
"J. c #FDEB69",
"K. c #F7E768",
"L. c #146D87",
"P. c #127594",
"I. c #0E7290",
"U. c #237B8C",
"Y. c #697A80",
"T. c #0E85AA",
"R. c #1885A5",
"E. c #0E92BA",
"W. c #1A94B9",
"Q. c #508594",
"!. c #6F9093",
"~. c #59A4AF",
"^. c #079ECE",
"/. c #0AA5D8",
"(. c #16ABDC",
"). c #2CAAD3",
"_. c #0AADE5",
"`. c #08B1E8",
"'. c #07B4EC",
"]. c #13B0E6",
"[. c #2CB6E6",
"{. c #5EB9D8",
"}. c #7DB9CE",
"|. c #44BFE9",
" X c #888989",
".X c #9A8D84",
"XX c #9D9189",
"oX c #9F9995",
"OX c #A69687",
"+X c #A99B93",
"@X c #BBA69C",
"#X c #ABA198",
"$X c #97AAAF",
"%X c #B6ACA5",
"&X c #BFB5AE",
"*X c #B0B3B0",
"=X c #D4AD86",
"-X c #D7B38D",
";X c #D8B48E",
":X c #DBB790",
">X c #CFA881",
",X c #D2B9A9",
"<X c #D8BEB2",
"1X c #C7B3A9",
"2X c #DBC2B4",
"3X c #DFC8BC",
"4X c #C8C1BA",
"5X c #EACCBD",
"6X c #E3C8BB",
"7X c #92C7D7",
"8X c #8ACDE4",
"9X c #CBCBCC",
"0X c #DAD9D9",
"qX c #EFCFC0",
"wX c #E6CEC0",
"eX c #F3D2C3",
"rX c #FDD7C7",
"tX c #FDD9C9",
"yX c white",
"uX c #F4F4F4",
"iX c #EDEBE9",
/* pixels */
"=Xf.e.O.l.6.h.f.e.o.b.+.v.e.q.w.v.+.e.g.o.v.6.g.e.g.o.v.+.g.e.q.w.v.+.e.f.O.v.6.",
"-X:.:. .O.( j.:.,.| +.+.5.:.1.| +.w.:.:. .+.| i.:.,.| w.O.,.:.1.| 8.w.:.:.>.O.( ",
"=X5.:.q.j.<.j.:.5.f.r.w.r.:.1.h.t.+.5.:.9.i.<.i.:.,.f.0.w.r.:.1.l.r.+.,.:.6.j.<.",
"n.6.u.e.4.>.e.7.p.e.:.<.q.q.q.p.4.o.6.u.q.0.<.e.7.u.e.,.6.q.r.q.y.4.O.6.t.e.4.<.",
";Xr.8.e.:.>.k.y.O.y.:.w.u.y.+.5.4.w.r.w.e.:.>.k.y.+.r.:.f.y.e.+.,.4.d.r.q.e.:.>.",
"z.q.8. .6.o.o.e.O. .q.| 8.w.o.O.7.| q.+.o.6. .o.+.W P R Y q.e.o.6.e./ q.8. .6. .",
";Xy.y.9.b.6.b.p.k.w.b.w.k.y.p.i.c.w.p.i.9.b.7.f.u q 9 9 9 L y.y.j.k.w.y.y.q.b.q.",
";X:.:.6.f.o.j.:.5.o.g.+.5.:.2.L a y r r y E @.* N.H.H.H.H.[ 5 u T E y U :.6.f.o.",
"n.t.,.q.y.<.e.4.4.f.,.| i & 9 ' %.a.N.N.%.k # #.H.H.H.H.H.H.H.s.I I , <.3.q.y.<.",
"=Xq.q.9.5.>.j.e.7.9.J 5 h s.C.H.H.H.G.H.J.C.j F.H.H.H.H.H.H.H.H.H.H.9 q.r.q.5.>.",
"=X4.e.j.3.<.y.t.~ t h a.H.H.H.H.H.H.H.H.H.S.j J.H.H.H.H.H.H.H.H.F.[ d 0.e.j.,.<.",
"z.w.+.| 8.| o.R % ..F.Z.F.H.H.J.H.H.H.H.H.H.{ $.H.H.H.H.H.H.H.G.{ 5 ^ +.+.| +. .",
"-X,.,.<.e.o.e.& %.G.D.=.;.A.J.J.H.G.H.H.J.H.A.q F.H.H.H.H.H.H.s.5 ! d.,.1.<.e.o.",
"-X:.:.6.j.6.6 $.H.H.a.@XtX@XOX;.{ [ { { ' h H U.e #.F.J.G.s.h 7 +.k.d.:.:.7.j.6.",
"z.r.5.q.y.u h H.H.F.-.tXtXtXrX5X,             T._.T.x w @ 7 2./ 8.4.( 0.,.9.y.>.",
":Xe.f y q X B.H.H.Z.,XrXrXrXrX6X3 - +         ; _._.(.} f f a C C K f.y.8.e.:.>.",
"m.t ..C.{ k J.H.F.OXrXrXrXrXrX2XF 0X9X-         E.`._.!.T O @XtXwXZ ( 3.r.f.1.<.",
"Q ] H.H.h B.H.J.S ,XrXtXrXrXrX2X0XyXyX X        P.`._.~.T Z tXtXtX.XT f.f.o.g.6.",
"w S.H.A.q A.J.h   # #XtXrXrXtX,X0XyXyX X        L.`._.~.T _ 1X.X&.8 X.:.:.2.O.~ ",
"8 J.H.B.q s.*       z Q.2XwX6XXXF iX0X-         T._._.-.p & J P ) p.8.:.:.6.k.7.",
"s C.H.B.O - 2       . L.W.F 2XXX+X+ .         o (.].).>.@ | r.7.! d 7 W 0.e.0.>.",
"-.s G.C.3 *XuXF       ; `.Q.2XqXrX_         . P._.].7XG % p.e.0 i U E @ a e.:.>.",
"x.d h $.9 9XyXiX      + `.W.<XrXrXrXXXv l L.E.`.).}.#X1 1 & & 9 6.9.K X t 8.7.>.",
"-Xr.^ 0 + Z yX0X      + `.(.*XrXrXrX6XqX&X!.Q.Q.*XwX` P.P.    $ +.c.T a a 6.b.9.",
"-X:.:.>.T   M <       ; `.|.$XrXtX5X.XrXrXtXtXtXrX@Xx _.;   ; E.b 6 6 7 U >.d.( ",
">X4.:.q.e.4         o L._.{.&XrXtX*.eXrXrXrXrXtX_ c /.c   o _.`.T.k O.0.:.9.y.>.",
"n.6.t.e.4.>.&     . L.'.].$X3XrXrX#XrXrXrXrXrX` 1 E.P.    m ^.^.B | W ~ 7.9.,.>.",
"-X0.e.e.:.<.6.% = P.(.[.8X&XqXtXtX5XrXrX5XOXM t C V s t y f V V f L d K ! f.,.>.",
"z.w.+.( 8.| X.+.d < v Y.oX<XqXwX6X<X@XD w y R  .+.+.| +./ w.+.X.o.6./ w.+.@.+.| ",
"-X0.0.6.j.<.l.0.y.! i > 3 M N N M , $ i W g.6.v.r.r.6.j.w.y.r.r.w.i.w.q.0.7.i.<.",
"-X:.:.<.g.6.j.:.3.6.g.d.8 qX2X+X0 8.:.:.<.g.6.j.:.,.+.j.d.,.:.1.w.j.+.:.:.<.h.O.",
"n.0.,.9.y.>.e.4.4.d.,.6.D rXrXXXU  .4.3.9.y.>.q.4.4.e.,.O.r.4.1.g.4.o.r.,.9.r.<.",
"-Xe.q.q.5.<.v.e.7.y.:.e.V qXtX*.U w.y.q.e.,.<.v.e.7.y.:.w.i.e.6.r.4.w.y.q.q.,.<.",
"n.t.y.j.4.1.r.t.e.y.4.q.Y C V a <.6.r.y.i.4.<.r.t.w.y.4.q.r.u.f.r.u.6.4.y.g.4.1.",
"m.d.d. .d.o.8.f.d. .d.| d.d.~ +.d.| f.d. .d.o.w.f.w.o.f.| f.w.+.+.e.| f.d.| w.o.",
"-X:.:.>.8.| j.:.,.| w.+.,.:.1.o.e.+.:.:. .9.| j.:.,. .w.+.,.:.,.o.w.+.:.:.>.w.| ",
"-X:.:.7.b.7.j.:.:.f.j.f.1.:.1.l.k.d.:.:.9.l.9.j.:.:.e.c.f.1.:.1.v.c.w.:.:.7.b.q.",
"z.9.r.e.r.>.6.q.t.f.,.>.7.0.7.j.4.| q.4.e.0.1.6.q.r.e.,.o.q.r.r.e.4.| q.0.9.r.<.",
":Xy.6.e.:.>.b.i.o.y.:.f.p.e.6.,.4.f.y.6.e.:.>.b.i.o.y.:.e.p.e.+.0.4.f.y.O.e.:.>.",
"n.1.9.6.<.>.7.,.6.e.1.o.1.0.8.7.4. .<.9.9.1.<.<.1.6.q.1.6.1.q.6.1.r. .1.q.q.1.>."
};
