/* XPM */
static char *New_Project1676818197[] = {
/* columns rows colors chars-per-pixel */
"40 40 35 1 ",
"  c #171715",
". c #1D1C1A",
"X c #23211F",
"o c #252422",
"O c #282724",
"+ c #2B2926",
"@ c #2E2C29",
"# c #302E2B",
"$ c #33322E",
"% c #363431",
"& c #393633",
"* c #3C3A35",
"= c #3F3C38",
"- c #413E3A",
"; c #44423D",
": c #474540",
"> c #494642",
", c #4D4A45",
"< c #4F4D48",
"1 c #504D47",
"2 c #514E49",
"3 c #55524C",
"4 c #58554F",
"5 c #575450",
"6 c #5A5651",
"7 c #5D5954",
"8 c #605D56",
"9 c #625F58",
"0 c #65615B",
"q c #69655E",
"w c #6A6661",
"e c #6E6A63",
"r c #716D65",
"t c #757069",
"y c #78746B",
/* pixels */
"*%@OX. X**&@@:>,,,<<*--;%$=;>-#@,3443>@o",
",-#$;,>,,>*@&::%&>3<>,>$%<366643;@$*%O#;",
":&@=,332<<;$*-;@%><,,,,**2344663:@%=*$*,",
"$#*;=@@&&%O%@@$$@O%@$,707,$#&$$&,=%*-**=",
";$$-;%=67,@@&,33;O$%$;><<=#*>>;;;*%;;-;;",
";;--$+$*=*@O-356<%$=*;;*$$%,677<$*;;&o@;",
";-**$$%@$%%@@&**$$*>;;;-$$$;,,>;*;=&&%->",
"2*;,,*$=<3,=*57>=577>$&<2332,=&7tq,-30qq",
"%+$*%@%1474;%&-%$*;;&+@&;;,22;=;;*%@*--;",
"49091@O%-&%#%<677743;;60;@@%*$@=><,2<;$*",
"3774;#%;;--**,221112;*17<#&,2>*$;>;=*%#;",
"%*-%+X+#;111,<,-&;14;;%$&&;;;&$;64,$%-=*",
"$&=*%+++-244342:*14461*;,,2,,;=;11,-,43;",
";>,,1;;$+*;,-%*:;&**%&&=;*&&;=$*;1,;;;**",
"4899097;$>472-:3,$*&@=;;;%#$;**366644,&-",
">--,2;->1,;-,>,<;;=&&7qq3$*3776,-,1343,;",
"0,,78,;361**2666644;;7qy0->3777,,900q009",
",;$=;;122,;@$;;;-@@$*;;&$*:*;377<:-=>,2,",
"1,;;6888666;&;33;@&;6072;:2>7wtt03==,333",
";>;=;,22;;*$*;;;-=30qqq03=:<77775>=>33,;",
",3,-;4768;;133331;=;,;;;;>234333,;>9ww3%",
"333,;1,;**;;;*=;2123674,390w0007q7,,,,>-",
"9999643;*;,;;;;=2700qq03-;:,,,>;133,>;;2",
";,,,,11*&;2;=33=;-=;3773=#-0ew3*7qrrrq4-",
"6743331%;342;;;173<60qeq8>:233;%23221;->",
",;;;-;,>,;=*&;*%%=>>=;>>:&*%&--->;-$++$-",
"331;&;142;;;;;;;-;,>&;273,>=-,,,22>$*,14",
",;11-*--;&$=;&&=>,>;=470q03-:,:&-32%-11,",
"%;>11,>-;;,,>;&&>33>&=;>>;&%=:>&-;*#-,1;",
"$;;>;;;;=&*;,>;@$*%$-366533,&=-&+##*;>--",
"*-;-$%;4,;=,33,&=;*+&><,>>>:*:2:*,474-$%",
"111>-%->>;;;;=$&;,;$@>2,$#&==:>--*-;;*-1",
"-###%<79909882->775-*672%*>56676>$*21-&-",
"-*>3:%*----:;*$$*:-%##&:-@@*22>*O+*>1;&-",
"-;<2:##%&##-%$-,2552-%:76-:7re0,#%;231>;",
"<&%:>,,1,-$*%#$-----&@#::;,3332:#*,23131",
"@o#**%%->1>>>*$*&*%&##>8099>%%&**---$$-;",
"%%;<;%%:;-&%->>:%<75%-26763*%,366463--13",
"o#*>;&%#;-#+-22;@>52$#-;**-*-;-*;;;;%@#@",
"<577652*0yr>&;11-*%O+299<>7w06>@;9eq91%#"
};
